<svg version="1.1" id="Layer_1" xmlns="http://www.w3.org/2000/svg"  xmlns:xlink="http://www.w3.org/1999/xlink" x="0px" y="0px"
	  viewBox="0 0 424 141" width="111.196" height="30.566"  enable-background="new 0 0 424 141" xml:space="preserve">
	   <defs>
    <linearGradient id="linear-gradient" x1="0.5" x2="1.275" y2="0.725" gradientUnits="objectBoundingBox">
      <stop offset="0" stop-color="#FFD700"/>
      <stop offset="1" stop-color="##101010"/>
    </linearGradient>
  </defs>
<path fill="#2e2e2e" opacity="1.000000" stroke="none" 
	d="
M28.094927,98.551094 
	C19.983152,88.014862 14.731081,76.429153 14.992890,62.823009 
	C15.440632,39.554081 31.673656,19.429247 56.236427,11.687335 
	C84.893730,2.654871 116.294670,15.119700 129.611679,40.885891 
	C130.502045,42.608593 130.841797,44.615883 130.981583,46.678093 
	C123.209358,32.198578 111.765221,22.651157 95.821014,18.715498 
	C65.102089,11.132855 34.134476,35.209923 33.978416,66.784111 
	C33.864708,89.789345 46.228615,107.844719 67.650047,115.970238 
	C68.732239,116.380730 69.787834,116.861359 70.829086,117.994019 
	C65.703781,117.710526 60.523998,117.046341 55.523602,115.710594 
	C45.256054,112.967842 37.045673,106.594185 29.063639,99.921707 
	C29.063639,99.921707 29.011272,99.985939 29.038979,99.657249 
	C28.742767,99.069405 28.418848,98.810249 28.094927,98.551094 
z"/>



<path fill="url(#linear-gradient)" opacity="1.000000" stroke="none" 
	d="
M28.974886,100.298630 
	C37.045673,106.594185 45.256054,112.967842 55.523602,115.710594 
	C60.523998,117.046341 65.703781,117.710526 70.984314,118.320053 
	C76.002678,118.037552 80.849884,117.932999 85.673630,118.221222 
	C106.154694,119.444954 125.970314,103.758797 132.224442,84.742607 
	C132.836960,82.880173 133.528091,81.043594 134.291885,78.886772 
	C137.650391,96.131615 128.280029,114.582756 111.223473,124.827660 
	C87.220741,139.244720 55.563457,134.918594 36.887257,114.230942 
	C33.442200,110.414848 31.514294,105.229111 28.974886,100.298630 
z"/>




    <text id="OBRY" transform="translate(156 100)" fill="#2e2e2e" font-size="94" font-family="Helvetica-Bold, Helvetica" font-weight="700"><tspan x="0" y="0">OBRY</tspan></text>

</svg>